<svg xmlns="http://www.w3.org/2000/svg" viewBox="-8813 52 200.783 52">
  <defs>
    <style>
      .cls-1 {
        fill: #fff;
      }
    </style>
  </defs>
  <g id="Group_1" data-name="Group 1" transform="translate(-8813 52)">
    <path id="XMLID_2_" class="cls-1" d="M25.931,58.523a5.793,5.793,0,0,0,5.02-2.891H44.875a23.55,23.55,0,0,0,.3-3.632,22.554,22.554,0,1,0-1.735,8.721h-8.6a15.027,15.027,0,1,1,2.5-11.7H31.112a5.832,5.832,0,0,0-5.181-3.169H19.222v2.521H15.29a1.157,1.157,0,1,0,0,2.313h3.932v3.007H15.29a1.157,1.157,0,0,0,0,2.313h3.932v2.475h6.708Z" transform="translate(0 -22.599)"/>
    <g id="XMLID_1_" transform="translate(55.979)">
      <path id="Path_1" data-name="Path 1" class="cls-1" d="M266.682,77.277a1.63,1.63,0,0,1,1.642,1.018l1.642,3.377a2.077,2.077,0,0,1,.162.625,2.634,2.634,0,0,1-1.249,1.966c-3.539,3.077-8.327,3.146-11.867,3.146C246.488,87.408,242,81.116,242,70.73c0-9.669,4.488-16.03,15.012-16.03,8.489,0,13.278,4.256,13.278,9.993,0,7.31-4.649,11.011-11.7,11.011a25.044,25.044,0,0,1-6.916-1.018c0,2.2,1.735,4.326,5.343,4.326,1.9,0,5.737,0,8.651-1.5A2.4,2.4,0,0,1,266.682,77.277ZM251.6,67.052c1.18,1.018,3.47,1.342,4.719,1.342,2.984,0,4.557-.717,4.557-2.429,0-2.29-1.8-2.753-3.863-2.753C254.26,63.189,252.224,64.207,251.6,67.052Z" transform="translate(-242 -42.047)"/>
      <path id="Path_2" data-name="Path 2" class="cls-1" d="M390.423,58.4a2.083,2.083,0,0,1,1.249-1.966,43.689,43.689,0,0,1,12.1-1.735c10.525,0,14.55,4.788,14.55,15.174V85.211a1.778,1.778,0,0,1-1.8,1.8h-5.829a1.778,1.778,0,0,1-1.8-1.8V69.874c0-5.667-.393-6.754-4.881-6.754-.717,0-3.146.069-4.164.786v21.3a1.778,1.778,0,0,1-1.8,1.8H392.2a1.778,1.778,0,0,1-1.8-1.8V58.4Z" transform="translate(-356.073 -42.047)"/>
      <path id="Path_3" data-name="Path 3" class="cls-1" d="M533.3,70.83c0-9.669,5.112-16.03,15.637-16.03s15.637,6.361,15.637,16.03c0,10.386-5.112,16.678-15.637,16.678S533.3,81.193,533.3,70.83Zm21.212.069c0-3.215-.555-7.633-5.575-7.633s-5.575,4.4-5.575,7.633c0,3.215,0,8.165,5.575,8.165S554.512,74.115,554.512,70.9Z" transform="translate(-465.917 -42.124)"/>
      <path id="Path_4" data-name="Path 4" class="cls-1" d="M700.39,79.381c1.411,0,4.95-.162,4.95-2.036,0-4.326-17.141.324-17.141-12.746,0-5.274,3.47-9.9,13.671-9.9a47.166,47.166,0,0,1,8.165,1.018c.948.162,1.966.856,1.966,1.8,0,.555-.069,1.642-.324,4.326-.162,1.411-1.11,1.642-2.29,1.642-1.9-.231-4.557-.463-5.182-.463-4.094,0-6.523.231-6.523,1.5,0,4.326,17.141-.162,17.141,12.584,0,6.593-5.274,10.294-14.318,10.294a33.224,33.224,0,0,1-10.062-1.8c-.786-.393-1.573-.948-1.573-1.8.162-.786.393-1.8,1.18-4.4a1.955,1.955,0,0,1,1.9-1.249,2.6,2.6,0,0,1,.717.069A34.276,34.276,0,0,0,700.39,79.381Z" transform="translate(-584.987 -42.047)"/>
      <path id="Path_5" data-name="Path 5" class="cls-1" d="M828.381,0a5.233,5.233,0,0,1,5.182,5.181,5.182,5.182,0,0,1-10.363,0A5.233,5.233,0,0,1,828.381,0Zm-4.649,43.164a1.778,1.778,0,0,0,1.8,1.8h5.829a1.778,1.778,0,0,0,1.8-1.8V14.943a1.778,1.778,0,0,0-1.8-1.8h-5.829a1.778,1.778,0,0,0-1.8,1.8Z" transform="translate(-688.759)"/>
    </g>
  </g>
</svg>
