<svg xmlns="http://www.w3.org/2000/svg" xmlns:xlink="http://www.w3.org/1999/xlink" viewBox="-8561 3895 81.25 75">
  <defs>
    <style>
      .cls-1 {
        fill: url(#linear-gradient);
      }

      .cls-2 {
        fill: url(#linear-gradient-2);
      }

      .cls-3 {
        fill: url(#linear-gradient-3);
      }

      .cls-4 {
        fill: url(#linear-gradient-4);
      }
    </style>
    <linearGradient id="linear-gradient" x1="-3.64" y1="-1.71" x2="-3.64" y2="-1.036" gradientUnits="objectBoundingBox">
      <stop offset="0" stop-color="#1892d2"/>
      <stop offset="1" stop-color="#31a84d"/>
    </linearGradient>
    <linearGradient id="linear-gradient-2" x1="0.278" y1="-0.071" x2="0.278" y2="0.594" xlink:href="#linear-gradient"/>
    <linearGradient id="linear-gradient-3" x1="-0.49" y1="-1.838" x2="-0.49" y2="0.156" xlink:href="#linear-gradient"/>
    <linearGradient id="linear-gradient-4" x1="-1.84" y1="-2.541" x2="-1.84" y2="0.65" xlink:href="#linear-gradient"/>
  </defs>
  <g id="icons8_Coins_2" transform="translate(-8570.375 3882.5)">
    <path id="Path_20" data-name="Path 20" class="cls-1" d="M68.75,71.875a6.25,6.25,0,0,0,0-12.5Z"/>
    <path id="Path_21" data-name="Path 21" class="cls-2" d="M74.211,38.219a32.324,32.324,0,0,0-2.336-6.84V31.25h-.059a32.763,32.763,0,0,0-59.23,0H12.5v.18A32.545,32.545,0,0,0,9.375,45.313v9.375A32.806,32.806,0,0,0,56.926,84a21.84,21.84,0,0,0,33.7-18.375v-6.25A21.894,21.894,0,0,0,74.211,38.219Zm2.352,7V42.352a18.723,18.723,0,0,1,3.125,1.824v2.535A21.437,21.437,0,0,0,76.563,45.219ZM47.574,71.008a17.192,17.192,0,1,1,6.969-28.234,21.823,21.823,0,0,0-7.668,16.6v6.25A21.675,21.675,0,0,0,47.574,71.008Zm7.113-23.992v1.879a21.918,21.918,0,0,0-3.336,3.523A18.7,18.7,0,0,1,54.688,47.016Zm3.125-2.84a18.723,18.723,0,0,1,3.125-1.824v2.867a21.437,21.437,0,0,0-3.125,1.492Zm6.25-2.934a18.732,18.732,0,0,1,3.125-.539v3.125a22.23,22.23,0,0,0-3.125.441ZM46.875,22.227V16.016A29.791,29.791,0,0,1,50,16.684v6.16C48.973,22.59,47.93,22.379,46.875,22.227Zm6.25-4.477a30.742,30.742,0,0,1,3.125,1.457V25.07a33.083,33.083,0,0,0-3.125-1.3Zm6.25,3.4A30.123,30.123,0,0,1,62.5,23.7v5.246a33.1,33.1,0,0,0-3.125-2.176Zm6.25,5.992a29.509,29.509,0,0,1,3.125,4.906v3.406a32.692,32.692,0,0,0-3.125-3.7ZM70.313,40.7a18.732,18.732,0,0,1,3.125.539V44.27a22.23,22.23,0,0,0-3.125-.441ZM43.75,15.7v6.231c-.52-.024-1.039-.051-1.562-.051s-1.039.055-1.562.078V15.7c.52-.027,1.035-.078,1.563-.078S43.23,15.668,43.75,15.7ZM15.625,32.133a29.768,29.768,0,0,1,3.125-4.977v4.609A33.178,33.178,0,0,0,15.625,35.5Zm6.25-8.41A29.851,29.851,0,0,1,25,21.152v5.637a33.318,33.318,0,0,0-3.125,2.18Zm6.25-4.547a29.409,29.409,0,0,1,3.125-1.437v6.051a32.273,32.273,0,0,0-3.125,1.3Zm6.25-2.473a29.591,29.591,0,0,1,3.125-.672V22.25a31.75,31.75,0,0,0-3.125.605Zm7.813,67.672A29.688,29.688,0,1,1,66.465,37.621,21.686,21.686,0,0,0,57.082,40.9a20.308,20.308,0,1,0-8.543,33.074,22.011,22.011,0,0,0,5.6,7.879A29.75,29.75,0,0,1,42.188,84.375Zm26.563,0A18.75,18.75,0,1,1,87.5,65.625,18.77,18.77,0,0,1,68.75,84.375Zm14.063-35.48V47.016a18.7,18.7,0,0,1,3.336,5.4A21.918,21.918,0,0,0,82.813,48.895Z"/>
    <path id="Path_22" data-name="Path 22" class="cls-3" d="M68.75,53.125a12.5,12.5,0,1,0,12.5,12.5A12.517,12.517,0,0,0,68.75,53.125ZM68.75,75a9.375,9.375,0,1,1,9.375-9.375A9.382,9.382,0,0,1,68.75,75Z"/>
    <path id="Path_23" data-name="Path 23" class="cls-4" d="M37.5,50h3.125V62.5H43.75V46.875H37.5Z"/>
  </g>
</svg>
