<svg xmlns="http://www.w3.org/2000/svg" viewBox="-8733.563 6010.438 65.125 65.125">
  <defs>
    <style>
      .cls-1 {
        opacity: 0.62;
      }

      .cls-2 {
        fill: #fff;
      }
    </style>
  </defs>
  <g id="icons8_LinkedIn" class="cls-1" transform="translate(-8733.563 6010.438)">
    <path id="Path_26" data-name="Path 26" class="cls-2" d="M52.914,0h-40.7A12.214,12.214,0,0,0,0,12.211v40.7A12.214,12.214,0,0,0,12.211,65.125h40.7A12.214,12.214,0,0,0,65.125,52.914v-40.7A12.214,12.214,0,0,0,52.914,0ZM20.136,55.282H10.019L9.961,24.989H20.078ZM14.823,21.027h-.059a5.1,5.1,0,0,1-5.44-5.117c0-2.906,2.2-5.107,5.567-5.107a5.107,5.107,0,0,1,5.5,5.107C20.391,18.747,18.248,21.027,14.823,21.027Zm40.39,34.255H45.008V38.825c0-3.982-1.057-6.693-4.618-6.693a5.165,5.165,0,0,0-4.892,3.6,6.608,6.608,0,0,0-.333,2.4V55.282H24.911l-.059-30.293H35.106l.059,4.276a9.483,9.483,0,0,1,8.718-4.892C50.36,24.373,55.2,28.6,55.2,37.69V55.282Z"/>
  </g>
</svg>
