<svg xmlns="http://www.w3.org/2000/svg" viewBox="0 0 114.8 110.915">
  <defs>
    <style>
      .cls-1 {
        fill: none;
        stroke: #ddd;
        stroke-width: 16px;
      }

      .cls-2 {
        fill: #fab37a;
      }

      .cls-3 {
        fill: #87491f;
      }

      .cls-4 {
        fill: #c5f993;
      }

      .cls-5 {
        fill: #61933f;
      }

      .cls-6 {
        fill: #9dd864;
      }

      .cls-7 {
        fill: #2e4149;
        opacity: 0.3;
      }

      .cls-8 {
        fill: #dceaef;
      }

      .cls-9 {
        fill: #e07b36;
      }

      .cls-10 {
        fill: #f48d47;
      }

      .cls-11 {
        fill: #b7591a;
      }

      .cls-12 {
        fill: #4b4751;
      }

      .cls-13 {
        fill: #37323f;
      }

      .cls-14 {
        fill: #25202d;
      }

      .cls-15 {
        fill: #f0f5f7;
      }

      .cls-16 {
        fill: #bfd7dd;
      }

      .cls-17 {
        fill: #80acb7;
      }

      .cls-18 {
        fill: #4dd0e1;
      }

      .cls-19 {
        fill: #b2ebf2;
      }

      .cls-20 {
        fill: #009bbf;
      }

      .cls-21 {
        fill: #c16f4c;
      }

      .cls-22 {
        fill: #7c3f21;
      }

      .cls-23 {
        fill: #5b2a12;
      }

      .cls-24 {
        fill: #a54c0f;
      }

      .cls-25 {
        fill: #c66524;
      }

      .cls-26 {
        fill: #008c47;
      }

      .cls-27 {
        fill: #00ad31;
      }
    </style>
  </defs>
  <g id="Group_671" data-name="Group 671" transform="translate(-775 -183.321)">
    <path id="Path_7619" data-name="Path 7619" class="cls-1" d="M86,51.4V27h0l1.2-.7v-.9L49.7,3.7,49,4,38.4,0l-.7,1h0l-.1.1-.9,1.3-.1.1h0L35,4.9h0l-.9,1.3h0l-3.4,4.9h0l-.9,1.3h0l-.1.1-.9,1.2V14h0l-.9,1.3h0L26.8,17l-3.1,1.8v.9l1.8,1V44.1L0,58.8v4.7L49.4,92,98.8,63.5V58.8ZM72.7,34.6" transform="translate(783 193)"/>
    <g id="XMLID_800_" transform="translate(363.5 99)">
      <g id="XMLID_1205_">
        <path id="XMLID_1210_" class="cls-2" d="M468.6,186.1l-49.4-28.6v-3.4l49.4,28.5Z"/>
        <path id="XMLID_1209_" class="cls-3" d="M468.6,186.1v-3.5L518,154.1v3.4Z"/>
        <path id="XMLID_1208_" class="cls-4" d="M468.6,182.6l-49.4-28.5v-1.3l49.4,28.5Z"/>
        <path id="XMLID_1207_" class="cls-5" d="M468.6,182.6v-1.3L518,152.8v1.3Z"/>
        <path id="XMLID_1206_" class="cls-6" d="M468.6,181.3l-49.4-28.5,49.4-28.5L518,152.8Z"/>
      </g>
      <path id="XMLID_1204_" class="cls-7" d="M471.8,167.6h20.6L518,152.8l-14.7-8.4Z"/>
      <path id="XMLID_1203_" class="cls-8" d="M455.7,163.6c-.3-.2-.3-.5,0-.6l4.5-2.6-5.2-3-4.5,2.6c-3.2,1.8-3.2,4.9,0,6.7.3.2.3.5,0,.6l-3.1,1.8,5.2,3,3.1-1.8C458.9,168.5,458.9,165.5,455.7,163.6Z"/>
      <g id="XMLID_855_">
        <path id="XMLID_1202_" class="cls-9" d="M444.6,114.7V147l35.8,20.6V135.3Z"/>
        <g id="XMLID_1195_">
          <path id="XMLID_1201_" class="cls-10" d="M457.5,125.9l-2.2-1.3v-1.3l2.2,1.3Z"/>
          <path id="XMLID_1200_" class="cls-10" d="M460.9,129.1l-2.3-1.3v-1.3l2.3,1.3Z"/>
          <path id="XMLID_1199_" class="cls-10" d="M452.5,134.5l-2.3-1.3v-1.3l2.3,1.3Z"/>
          <path id="XMLID_1198_" class="cls-10" d="M452.5,140.6l-2.3-1.3V138l2.3,1.3Z"/>
          <path id="XMLID_1197_" class="cls-10" d="M457.5,132.5l-2.2-1.3v-1.3l2.2,1.3Z"/>
          <path id="XMLID_1196_" class="cls-10" d="M460.9,126.5l-2.3-1.3V124l2.3,1.3Z"/>
        </g>
        <g id="XMLID_1189_">
          <path id="XMLID_1194_" class="cls-10" d="M466.4,131l-2.3-1.3v-1.2l2.3,1.2Z"/>
          <path id="XMLID_1193_" class="cls-10" d="M469.7,134.2l-2.2-1.3v-1.2l2.2,1.3Z"/>
          <path id="XMLID_1192_" class="cls-10" d="M474.1,147.4l-2.3-1.3v-1.2l2.3,1.2Z"/>
          <path id="XMLID_1191_" class="cls-10" d="M475.2,155l-2.2-1.3v-1.3l2.2,1.3Z"/>
          <path id="XMLID_1190_" class="cls-10" d="M469.7,139.4l-2.2-1.2v-1.3l2.2,1.3Z"/>
        </g>
        <g id="XMLID_1185_">
          <path id="XMLID_1188_" class="cls-10" d="M478.1,135.9l2.3,1.3v1.3l-2.3-1.3Z"/>
          <path id="XMLID_1187_" class="cls-10" d="M478.1,133.4l2.3,1.3v1.2l-2.3-1.2Z"/>
          <path id="XMLID_1186_" class="cls-11" d="M474.8,132.7,477,134v1.3l-2.2-1.3Z"/>
        </g>
        <g id="XMLID_1181_">
          <path id="XMLID_1184_" class="cls-10" d="M478.1,151.9l2.3,1.3v1.3l-2.3-1.3Z"/>
          <path id="XMLID_1183_" class="cls-10" d="M478.1,149.4l2.3,1.3V152l-2.3-1.3Z"/>
          <path id="XMLID_1182_" class="cls-11" d="M474.8,148.7,477,150v1.3l-2.2-1.3Z"/>
        </g>
        <g id="XMLID_1177_">
          <path id="XMLID_1180_" class="cls-10" d="M478.1,160.1l2.3,1.3v1.3l-2.3-1.3Z"/>
          <path id="XMLID_1179_" class="cls-10" d="M478.1,157.6l2.3,1.3v1.2l-2.3-1.2Z"/>
          <path id="XMLID_1178_" class="cls-11" d="M474.8,156.9l2.2,1.3v1.3l-2.2-1.3Z"/>
        </g>
        <g id="XMLID_1173_">
          <path id="XMLID_1176_" class="cls-10" d="M478.1,143.6l2.3,1.3v1.3l-2.3-1.3Z"/>
          <path id="XMLID_1175_" class="cls-10" d="M478.1,141.1l2.3,1.3v1.3l-2.3-1.3Z"/>
          <path id="XMLID_1174_" class="cls-11" d="M474.8,140.4l2.2,1.3V143l-2.2-1.3Z"/>
        </g>
        <g id="XMLID_1169_">
          <path id="XMLID_1172_" class="cls-10" d="M446.9,141l-2.3-1.3v-1.2l2.3,1.3Z"/>
          <path id="XMLID_1171_" class="cls-10" d="M446.9,143.6l-2.3-1.3V141l2.3,1.3Z"/>
          <path id="XMLID_1170_" class="cls-11" d="M450.3,144.3,448,143v-1.3l2.3,1.3Z"/>
        </g>
        <g id="XMLID_1165_">
          <path id="XMLID_1168_" class="cls-10" d="M446.9,124.8l-2.3-1.3v-1.3l2.3,1.3Z"/>
          <path id="XMLID_1167_" class="cls-10" d="M446.9,127.3l-2.3-1.3v-1.2l2.3,1.3Z"/>
          <path id="XMLID_1166_" class="cls-11" d="M450.3,128l-2.3-1.3v-1.3l2.3,1.3Z"/>
        </g>
        <g id="XMLID_1161_">
          <path id="XMLID_1164_" class="cls-10" d="M446.9,116.6l-2.3-1.3V114l2.3,1.3Z"/>
          <path id="XMLID_1163_" class="cls-10" d="M446.9,119.1l-2.3-1.3v-1.2l2.3,1.3Z"/>
          <path id="XMLID_1162_" class="cls-11" d="M450.3,119.8l-2.3-1.3v-1.3l2.3,1.3Z"/>
        </g>
        <g id="XMLID_1154_">
          <path id="XMLID_1160_" class="cls-12" d="M442.2,145.1v.5l6.8,3.9V149Z"/>
          <path id="XMLID_1159_" class="cls-13" d="M444.6,141.6l-2.4,3.5L449,149l2.4-3.5Z"/>
          <g id="XMLID_1156_">
            <path id="XMLID_1158_" class="cls-14" d="M443.8,142.8l6.7,3.9.2-.2-6.7-3.9Z"/>
            <path id="XMLID_1157_" class="cls-14" d="M442.9,144.1l6.8,3.9.1-.2-6.7-3.9Z"/>
          </g>
          <path id="XMLID_1155_" class="cls-14" d="M449,149.5V149l2.4-3.5v.5Z"/>
        </g>
        <g id="XMLID_1134_">
          <g id="XMLID_1139_">
            <path id="XMLID_1151_" class="cls-15" d="M471.4,133.1l3.8,2.2v8.2l-3.8-2.2v-8.2m-.5-.8v9.4l4.8,2.7V135l-4.8-2.7Z"/>
            <g id="XMLID_1149_">
              <path id="XMLID_1150_" class="cls-16" d="M471.4,141.4l3.8,2.1V143l-3.3-1.9Z"/>
            </g>
            <g id="XMLID_1147_">
              <path id="XMLID_1148_" class="cls-17" d="M471.4,133.1v8.3l.5-.3v-7.7Z"/>
            </g>
            <path id="XMLID_1146_" class="cls-18" d="M471.9,133.4v7.7l3.3,1.9v-7.7Z"/>
            <path id="XMLID_1145_" class="cls-19" d="M472.8,137.6v-3.7l2.4,1.4Z"/>
            <path id="XMLID_1144_" class="cls-19" d="M475.2,135.8l-2.1,2,.4.2,1.7-1.6Z"/>
            <path id="XMLID_1143_" class="cls-20" d="M472.4,140.8v-7.1l-.5-.3v7.7l3.3,1.9v-.6Z"/>
            <g id="XMLID_1140_">
              <path id="XMLID_1142_" class="cls-16" d="M475.2,139l-3.3-1.9-.3.1,3.6,2.1Z"/>
              <path id="XMLID_1141_" class="cls-15" d="M475.2,139.3l-3.6-2.1v.3l3.6,2.1Z"/>
            </g>
          </g>
          <g id="XMLID_1135_">
            <path id="XMLID_1138_" class="cls-21" d="M475,144.8l-4.7-2.8v.7l4.7,2.7Z"/>
            <path id="XMLID_1137_" class="cls-22" d="M475.7,144.4l-4.8-2.8-.6.4,4.7,2.8Z"/>
            <path id="XMLID_1136_" class="cls-23" d="M475,144.8v.6l.7-.4v-.6Z"/>
          </g>
        </g>
        <path id="XMLID_1133_" class="cls-11" d="M505.2,121l-24.8,14.3v32.3l24.8-14.3Z"/>
        <g id="XMLID_1129_">
          <path id="XMLID_1132_" class="cls-24" d="M482.6,139.9l-2.2,1.3v1.3l2.2-1.3Z"/>
          <path id="XMLID_1131_" class="cls-24" d="M482.6,137.4l-2.2,1.3V140l2.2-1.3Z"/>
          <path id="XMLID_1130_" class="cls-24" d="M486,136.7l-2.2,1.3v1.3L486,138Z"/>
        </g>
        <g id="XMLID_1125_">
          <path id="XMLID_1128_" class="cls-24" d="M489.3,130.8l2.3-1.3v-1.2l-2.3,1.3Z"/>
          <path id="XMLID_1127_" class="cls-24" d="M489.3,133.4l2.3-1.3v-1.3l-2.3,1.3Z"/>
          <path id="XMLID_1126_" class="cls-24" d="M486,134.1l2.2-1.3v-1.3l-2.2,1.3Z"/>
        </g>
        <g id="XMLID_1121_">
          <path id="XMLID_1124_" class="cls-24" d="M489.3,137.9l2.3-1.3v-1.3l-2.3,1.3Z"/>
          <path id="XMLID_1123_" class="cls-24" d="M489.3,140.4l2.3-1.3v-1.3l-2.3,1.3Z"/>
          <path id="XMLID_1122_" class="cls-24" d="M486,141.1l2.2-1.3v-1.3l-2.2,1.3Z"/>
        </g>
        <g id="XMLID_1117_">
          <path id="XMLID_1120_" class="cls-24" d="M489.3,145.7l2.3-1.3v-1.3l-2.3,1.3Z"/>
          <path id="XMLID_1119_" class="cls-24" d="M489.3,148.2l2.3-1.3v-1.2l-2.3,1.3Z"/>
          <path id="XMLID_1118_" class="cls-24" d="M486,148.9l2.2-1.3v-1.3l-2.2,1.3Z"/>
        </g>
        <g id="XMLID_1113_">
          <path id="XMLID_1116_" class="cls-24" d="M489.3,154.5l2.3-1.3v-1.3l-2.3,1.3Z"/>
          <path id="XMLID_1115_" class="cls-24" d="M489.3,157l2.3-1.3v-1.3l-2.3,1.3Z"/>
          <path id="XMLID_1114_" class="cls-24" d="M486,157.7l2.2-1.3v-1.3l-2.2,1.3Z"/>
        </g>
        <g id="XMLID_1109_">
          <path id="XMLID_1112_" class="cls-24" d="M502.9,122.9l2.3-1.3v-1.2l-2.3,1.3Z"/>
          <path id="XMLID_1111_" class="cls-24" d="M502.9,125.5l2.3-1.3v-1.3l-2.3,1.3Z"/>
          <path id="XMLID_1110_" class="cls-24" d="M499.6,126.1l2.2-1.2v-1.3l-2.2,1.3Z"/>
        </g>
        <g id="XMLID_1105_">
          <path id="XMLID_1108_" class="cls-24" d="M502.9,130l2.3-1.3v-1.3l-2.3,1.3Z"/>
          <path id="XMLID_1107_" class="cls-24" d="M502.9,132.5l2.3-1.3v-1.3l-2.3,1.3Z"/>
          <path id="XMLID_1106_" class="cls-24" d="M499.6,133.2l2.2-1.3v-1.3l-2.2,1.3Z"/>
        </g>
        <g id="XMLID_1101_">
          <path id="XMLID_1104_" class="cls-24" d="M502.9,137.8l2.3-1.3v-1.3l-2.3,1.3Z"/>
          <path id="XMLID_1103_" class="cls-24" d="M502.9,140.3l2.3-1.3v-1.2l-2.3,1.3Z"/>
          <path id="XMLID_1102_" class="cls-24" d="M499.6,141l2.2-1.3v-1.3l-2.2,1.3Z"/>
        </g>
        <g id="XMLID_1097_">
          <path id="XMLID_1100_" class="cls-24" d="M502.9,146.5l2.3-1.3V144l-2.3,1.3Z"/>
          <path id="XMLID_1099_" class="cls-24" d="M502.9,149.1l2.3-1.3v-1.3l-2.3,1.3Z"/>
          <path id="XMLID_1098_" class="cls-24" d="M499.6,149.8l2.2-1.3v-1.3l-2.2,1.3Z"/>
        </g>
        <g id="XMLID_1093_">
          <path id="XMLID_1096_" class="cls-24" d="M482.6,156.1l-2.2,1.3v1.3l2.2-1.3Z"/>
          <path id="XMLID_1095_" class="cls-24" d="M482.6,153.5l-2.2,1.3v1.3l2.2-1.3Z"/>
          <path id="XMLID_1094_" class="cls-24" d="M486,152.9l-2.2,1.3v1.2l2.2-1.3Z"/>
        </g>
        <g id="XMLID_1089_">
          <path id="XMLID_1092_" class="cls-15" d="M442.8,112.7v.9l37.6,21.7v-.9Z"/>
          <path id="XMLID_1091_" class="cls-17" d="M506.4,119.4l-26,15v.9l26-15Z"/>
          <path id="XMLID_1090_" class="cls-16" d="M468.9,97.7l-26.1,15,37.6,21.7,26-15Z"/>
        </g>
        <g id="XMLID_1085_">
          <path id="XMLID_1088_" class="cls-12" d="M457.7,94l-13.1,18.8,35.8,20.7,13-18.8Z"/>
          <path id="XMLID_1087_" class="cls-14" d="M493.4,114.7l-13,18.8,24.8-14.3Z"/>
          <path id="XMLID_1086_" class="cls-13" d="M457.7,94l35.7,20.7,11.8,4.5L469.4,98.5Z"/>
        </g>
        <g id="XMLID_1067_">
          <path id="XMLID_1084_" class="cls-12" d="M458.2,130.8l13.1,36.5.5.3-13.6-37.8-13.6,22.1.5.3Z"/>
          <path id="XMLID_1083_" class="cls-14" d="M445.1,152.2l.9-.5,12.4-20.3-.2-.6Z"/>
          <g id="XMLID_1081_">
            <path id="XMLID_1082_" class="cls-10" d="M458.4,131.4,446,151.7l24.8,14.4Z"/>
          </g>
          <g id="XMLID_1070_">
            <path id="XMLID_1080_" class="cls-9" d="M456.6,137.9l-1.2-.7.5-1,.7.4Z"/>
            <path id="XMLID_1079_" class="cls-9" d="M456.6,140.4l-2.3-1.3.6-.9,1.7,1Z"/>
            <path id="XMLID_1078_" class="cls-9" d="M459.9,141.1l-2.2-1.3v-1.3l2.2,1.3Z"/>
            <path id="XMLID_1077_" class="cls-9" d="M465.6,158.6l-2.2-1.3v-1.2l2.2,1.3Z"/>
            <path id="XMLID_1076_" class="cls-9" d="M468.8,161.8l-2.3-1.2v-1.3l2.3,1.3Z"/>
            <path id="XMLID_1075_" class="cls-9" d="M467.7,157.7l-1.2-.7v-1.2l.6.3Z"/>
            <path id="XMLID_1074_" class="cls-9" d="M455.7,146.1l-2.2-1.3v-1.3l2.2,1.3Z"/>
            <path id="XMLID_1073_" class="cls-9" d="M450.9,149.5l-2.2-1.3.4-1,1.8,1.1Z"/>
            <path id="XMLID_1072_" class="cls-9" d="M449.5,151.4l-2.2-1.3.4-1,1.8,1Z"/>
            <path id="XMLID_1071_" class="cls-9" d="M463.1,145.3l-2-1.1v-1.3l1.3.8Z"/>
          </g>
          <path id="XMLID_1069_" class="cls-15" d="M458.4,132.6l11.9,33.2.5.3-12.4-34.7L446,151.7l.5.3Z"/>
          <path id="XMLID_1068_" class="cls-14" d="M458.2,129.8l4.3-2.5,13.6,37.8-4.3,2.5Z"/>
        </g>
        <g id="XMLID_1052_">
          <path id="XMLID_1066_" class="cls-13" d="M492.8,115.6,457,95l-.1.2,35.7,20.6Z"/>
          <path id="XMLID_1065_" class="cls-13" d="M491.9,116.9,456.1,96.3l-.1.2,35.7,20.6Z"/>
          <path id="XMLID_1064_" class="cls-13" d="M491,118.2,455.2,97.6l-.1.2,35.8,20.6Z"/>
          <path id="XMLID_1063_" class="cls-13" d="M490.1,119.4,454.3,98.8l-.1.2L490,119.6Z"/>
          <path id="XMLID_1062_" class="cls-13" d="M489.2,120.7l-35.7-20.6-.2.2,35.8,20.6Z"/>
          <path id="XMLID_1061_" class="cls-13" d="M488.3,122l-35.7-20.6-.2.2,35.8,20.6Z"/>
          <path id="XMLID_1060_" class="cls-13" d="M487.4,123.3l-35.7-20.6-.2.2,35.8,20.6Z"/>
          <path id="XMLID_1059_" class="cls-13" d="M486.6,124.6,450.8,104l-.1.2,35.7,20.6Z"/>
          <path id="XMLID_1058_" class="cls-13" d="M485.7,125.8l-35.8-20.6-.1.2L485.5,126Z"/>
          <path id="XMLID_1057_" class="cls-13" d="M484.8,127.1,449,106.5l-.1.2,35.7,20.6Z"/>
          <path id="XMLID_1056_" class="cls-13" d="M483.9,128.4l-35.8-20.6-.1.2,35.8,20.6Z"/>
          <path id="XMLID_1055_" class="cls-13" d="M483,129.7l-35.8-20.6-.1.2,35.8,20.6Z"/>
          <path id="XMLID_1054_" class="cls-13" d="M482.1,131l-35.7-20.6-.2.2L482,131.2Z"/>
          <path id="XMLID_1053_" class="cls-13" d="M481.2,132.2l-35.7-20.6-.2.2,35.8,20.6Z"/>
        </g>
        <g id="XMLID_1032_">
          <g id="XMLID_1037_">
            <path id="XMLID_1049_" class="cls-15" d="M449.8,120.7l3.8,2.2v8.2l-3.8-2.2v-8.2m-.5-.9v9.4l4.8,2.7v-9.4l-4.8-2.7Z"/>
            <g id="XMLID_1047_">
              <path id="XMLID_1048_" class="cls-16" d="M449.8,128.9l3.8,2.2v-.6l-3.3-1.9Z"/>
            </g>
            <g id="XMLID_1045_">
              <path id="XMLID_1046_" class="cls-17" d="M449.8,120.7v8.2l.5-.3v-7.7Z"/>
            </g>
            <path id="XMLID_1044_" class="cls-18" d="M450.3,120.9v7.7l3.3,1.9v-7.7Z"/>
            <path id="XMLID_1043_" class="cls-19" d="M451.2,125.1v-3.7l2.4,1.4Z"/>
            <path id="XMLID_1042_" class="cls-19" d="M453.6,123.4l-2.1,1.9.4.2,1.7-1.6Z"/>
            <path id="XMLID_1041_" class="cls-20" d="M450.8,128.3v-7.1l-.5-.3v7.7l3.3,1.9v-.6Z"/>
            <g id="XMLID_1038_">
              <path id="XMLID_1040_" class="cls-16" d="M453.6,126.5l-3.3-1.9-.3.2,3.6,2Z"/>
              <path id="XMLID_1039_" class="cls-15" d="M453.6,126.8l-3.6-2v.3l3.6,2Z"/>
            </g>
          </g>
          <g id="XMLID_1033_">
            <path id="XMLID_1036_" class="cls-21" d="M453.4,132.3l-4.7-2.7v.6l4.7,2.7Z"/>
            <path id="XMLID_1035_" class="cls-22" d="M454.1,131.9l-4.8-2.7-.6.4,4.7,2.7Z"/>
            <path id="XMLID_1034_" class="cls-23" d="M453.4,132.3v.6l.7-.4v-.6Z"/>
          </g>
        </g>
        <g id="XMLID_991_">
          <g id="XMLID_1012_">
            <g id="XMLID_1017_">
              <path id="XMLID_1029_" class="cls-16" d="M487.9,134.4v8.2l-3.8,2.2v-8.2l3.8-2.2m.5-.9-4.8,2.7v9.4l4.8-2.7v-9.4Z"/>
              <g id="XMLID_1027_">
                <path id="XMLID_1028_" class="cls-15" d="M487.9,142.6l-3.7,2.2v-.6l3.3-1.9Z"/>
              </g>
              <g id="XMLID_1025_">
                <path id="XMLID_1026_" class="cls-17" d="M487.9,134.4v8.2l-.4-.3v-7.7Z"/>
              </g>
              <path id="XMLID_1024_" class="cls-18" d="M487.5,134.6v7.7l-3.3,1.9v-7.7Z"/>
              <path id="XMLID_1023_" class="cls-19" d="M486.6,138.8v-3.7l-2.4,1.4Z"/>
              <path id="XMLID_1022_" class="cls-19" d="M484.2,137.1l2,1.9-.3.2-1.7-1.5Z"/>
              <path id="XMLID_1021_" class="cls-20" d="M487,142v-7.1l.5-.3v7.7l-3.3,1.9v-.5Z"/>
              <g id="XMLID_1018_">
                <path id="XMLID_1020_" class="cls-15" d="M484.2,140.2l3.3-1.9.2.2-3.5,2.1Z"/>
                <path id="XMLID_1019_" class="cls-16" d="M484.2,140.6l3.5-2.1v.3l-3.5,2.1Z"/>
              </g>
            </g>
            <g id="XMLID_1013_">
              <path id="XMLID_1016_" class="cls-23" d="M484.3,146l4.8-2.7v.6l-4.8,2.7Z"/>
              <path id="XMLID_1015_" class="cls-22" d="M483.7,145.6l4.7-2.7.7.4-4.8,2.7Z"/>
              <path id="XMLID_1014_" class="cls-21" d="M484.3,146v.6l-.6-.3v-.7Z"/>
            </g>
          </g>
          <g id="XMLID_992_">
            <g id="XMLID_997_">
              <path id="XMLID_1009_" class="cls-16" d="M500.7,127v8.2l-3.8,2.2v-8.2l3.8-2.2m.5-.8-4.8,2.7v9.4l4.8-2.7v-9.4Z"/>
              <g id="XMLID_1007_">
                <path id="XMLID_1008_" class="cls-15" d="M500.7,135.3l-3.7,2.1v-.5l3.2-1.9Z"/>
              </g>
              <g id="XMLID_1005_">
                <path id="XMLID_1006_" class="cls-17" d="M500.7,127v8.3l-.5-.3v-7.7Z"/>
              </g>
              <path id="XMLID_1004_" class="cls-18" d="M500.2,127.3V135l-3.2,1.9v-7.7Z"/>
              <path id="XMLID_1003_" class="cls-19" d="M499.4,131.5v-3.7l-2.4,1.4Z"/>
              <path id="XMLID_1002_" class="cls-19" d="M497,129.7l2,2-.3.2-1.7-1.6Z"/>
              <path id="XMLID_1001_" class="cls-20" d="M499.8,134.7v-7.1l.4-.3V135l-3.2,1.9v-.6Z"/>
              <g id="XMLID_998_">
                <path id="XMLID_1000_" class="cls-15" d="M497,132.9l3.2-1.9.3.1-3.5,2.1Z"/>
                <path id="XMLID_999_" class="cls-16" d="M497,133.2l3.5-2.1v.3l-3.5,2.1Z"/>
              </g>
            </g>
            <g id="XMLID_993_">
              <path id="XMLID_996_" class="cls-23" d="M497.1,138.7l4.8-2.8v.6l-4.8,2.8Z"/>
              <path id="XMLID_995_" class="cls-22" d="M496.5,138.3l4.7-2.8.7.4-4.8,2.8Z"/>
              <path id="XMLID_994_" class="cls-21" d="M497.1,138.7v.6l-.6-.4v-.6Z"/>
            </g>
          </g>
        </g>
        <g id="XMLID_950_">
          <g id="XMLID_971_">
            <g id="XMLID_976_">
              <path id="XMLID_988_" class="cls-16" d="M487.9,149.6v8.2l-3.8,2.2v-8.2l3.8-2.2m.5-.9-4.8,2.7v9.4l4.8-2.7v-9.4Z"/>
              <g id="XMLID_986_">
                <path id="XMLID_987_" class="cls-15" d="M487.9,157.8l-3.7,2.2v-.6l3.3-1.9Z"/>
              </g>
              <g id="XMLID_984_">
                <path id="XMLID_985_" class="cls-17" d="M487.9,149.6v8.2l-.4-.3v-7.6Z"/>
              </g>
              <path id="XMLID_983_" class="cls-18" d="M487.5,149.9v7.6l-3.3,1.9v-7.6Z"/>
              <path id="XMLID_982_" class="cls-19" d="M486.6,154v-3.6l-2.4,1.4Z"/>
              <path id="XMLID_981_" class="cls-19" d="M484.2,152.3l2,1.9-.3.2-1.7-1.5Z"/>
              <path id="XMLID_980_" class="cls-20" d="M487,157.2v-7.1l.5-.2v7.6l-3.3,1.9v-.5Z"/>
              <g id="XMLID_977_">
                <path id="XMLID_979_" class="cls-15" d="M484.2,155.4l3.3-1.9.2.2-3.5,2.1Z"/>
                <path id="XMLID_978_" class="cls-16" d="M484.2,155.8l3.5-2.1v.3l-3.5,2.1Z"/>
              </g>
            </g>
            <g id="XMLID_972_">
              <path id="XMLID_975_" class="cls-23" d="M484.3,161.2l4.8-2.7v.6l-4.8,2.7Z"/>
              <path id="XMLID_974_" class="cls-22" d="M483.7,160.8l4.7-2.7.7.4-4.8,2.7Z"/>
              <path id="XMLID_973_" class="cls-21" d="M484.3,161.2v.6l-.6-.3v-.7Z"/>
            </g>
          </g>
          <g id="XMLID_951_">
            <g id="XMLID_956_">
              <path id="XMLID_968_" class="cls-16" d="M500.7,142.2v8.2l-3.8,2.2v-8.2l3.8-2.2m.5-.8-4.8,2.7v9.4l4.8-2.7v-9.4Z"/>
              <g id="XMLID_966_">
                <path id="XMLID_967_" class="cls-15" d="M500.7,150.5l-3.7,2.1v-.5l3.2-1.9Z"/>
              </g>
              <g id="XMLID_964_">
                <path id="XMLID_965_" class="cls-17" d="M500.7,142.2v8.3l-.5-.3v-7.7Z"/>
              </g>
              <path id="XMLID_963_" class="cls-18" d="M500.2,142.5v7.7l-3.2,1.9v-7.7Z"/>
              <path id="XMLID_962_" class="cls-19" d="M499.4,146.7V143l-2.4,1.4Z"/>
              <path id="XMLID_961_" class="cls-19" d="M497,144.9l2,2-.3.2-1.7-1.6Z"/>
              <path id="XMLID_960_" class="cls-20" d="M499.8,149.9v-7.1l.4-.3v7.7l-3.2,1.9v-.6Z"/>
              <g id="XMLID_957_">
                <path id="XMLID_959_" class="cls-15" d="M497,148.1l3.2-1.9.3.1-3.5,2.1Z"/>
                <path id="XMLID_958_" class="cls-16" d="M497,148.4l3.5-2.1v.3l-3.5,2.1Z"/>
              </g>
            </g>
            <g id="XMLID_952_">
              <path id="XMLID_955_" class="cls-23" d="M497.1,153.9l4.8-2.8v.7l-4.8,2.7Z"/>
              <path id="XMLID_954_" class="cls-22" d="M496.5,153.5l4.7-2.8.7.4-4.8,2.8Z"/>
              <path id="XMLID_953_" class="cls-21" d="M497.1,153.9v.6l-.6-.4v-.6Z"/>
            </g>
          </g>
        </g>
        <g id="XMLID_943_">
          <path id="XMLID_949_" class="cls-12" d="M471.3,161.9v.5l6.7,3.8v-.5Z"/>
          <path id="XMLID_948_" class="cls-13" d="M473.7,158.4l-2.4,3.5,6.7,3.8,2.4-3.4Z"/>
          <g id="XMLID_945_">
            <path id="XMLID_947_" class="cls-14" d="M472.8,159.6l6.8,3.9.1-.2-6.7-3.9Z"/>
            <path id="XMLID_946_" class="cls-14" d="M472,160.9l6.7,3.8.1-.2-6.7-3.8Z"/>
          </g>
          <path id="XMLID_944_" class="cls-14" d="M478,166.2v-.5l2.4-3.4v.5Z"/>
        </g>
        <path id="XMLID_942_" class="cls-16" d="M445.5,151.6l25.4,14.7-.4-1.3-24.2-13.9Z"/>
        <path id="XMLID_941_" class="cls-15" d="M445.5,151.6l-.4.6,26.2,15.1-.4-1Z"/>
        <g id="XMLID_898_">
          <g id="XMLID_939_">
            <path id="XMLID_940_" class="cls-15" d="M461.9,147l-7-4.1v13.2l.5.3V143.8l6,3.5v12.5l.5.3Z"/>
          </g>
          <g id="XMLID_899_">
            <path id="XMLID_938_" class="cls-12" d="M455.4,143.8v12.6l6,3.4V147.3Z"/>
            <g id="XMLID_919_">
              <g id="XMLID_929_">
                <g id="XMLID_936_">
                  <path id="XMLID_937_" class="cls-13" d="M456.2,148.6l1.9,1.1v-.2l-1.7-1Z"/>
                </g>
                <g id="XMLID_934_">
                  <path id="XMLID_935_" class="cls-14" d="M456.2,146v2.6l.2-.1v-2.3Z"/>
                </g>
                <path id="XMLID_933_" class="cls-18" d="M456.4,146.2v2.3l1.7,1v-2.4Z"/>
                <path id="XMLID_932_" class="cls-19" d="M456.9,148.3v-1.9l1.2.7Z"/>
                <path id="XMLID_931_" class="cls-19" d="M458.1,147.4l-1.1,1,.2.1.9-.8Z"/>
                <path id="XMLID_930_" class="cls-20" d="M456.7,148.4v-2.1l-.3-.1v2.3l1.7,1v-.3Z"/>
              </g>
              <g id="XMLID_920_">
                <g id="XMLID_927_">
                  <path id="XMLID_928_" class="cls-13" d="M458.7,150.1l1.9,1.1v-.3L459,150Z"/>
                </g>
                <g id="XMLID_925_">
                  <path id="XMLID_926_" class="cls-14" d="M458.7,147.5v2.6l.3-.1v-2.3Z"/>
                </g>
                <path id="XMLID_924_" class="cls-18" d="M459,147.7V150l1.6.9v-2.3Z"/>
                <path id="XMLID_923_" class="cls-19" d="M459.4,149.7v-1.8l1.2.7Z"/>
                <path id="XMLID_922_" class="cls-19" d="M460.6,148.9l-1,.9.2.1.8-.8Z"/>
                <path id="XMLID_921_" class="cls-20" d="M459.2,149.8v-2l-.2-.1V150l1.6.9v-.3Z"/>
              </g>
            </g>
            <g id="XMLID_900_">
              <g id="XMLID_910_">
                <g id="XMLID_917_">
                  <path id="XMLID_918_" class="cls-13" d="M456.2,152.1l1.9,1v-.2l-1.7-1Z"/>
                </g>
                <g id="XMLID_915_">
                  <path id="XMLID_916_" class="cls-14" d="M456.2,149.5v2.6l.2-.2v-2.3Z"/>
                </g>
                <path id="XMLID_914_" class="cls-18" d="M456.4,149.6v2.3l1.7,1v-2.4Z"/>
                <path id="XMLID_913_" class="cls-19" d="M456.9,151.7v-1.9l1.2.7Z"/>
                <path id="XMLID_912_" class="cls-19" d="M458.1,150.8l-1.1,1,.2.1.9-.8Z"/>
                <path id="XMLID_911_" class="cls-20" d="M456.7,151.8v-2.1l-.3-.1v2.3l1.7,1v-.3Z"/>
              </g>
              <g id="XMLID_901_">
                <g id="XMLID_908_">
                  <path id="XMLID_909_" class="cls-13" d="M458.7,153.5l1.9,1.1v-.3l-1.6-.9Z"/>
                </g>
                <g id="XMLID_906_">
                  <path id="XMLID_907_" class="cls-14" d="M458.7,150.9v2.6l.3-.1v-2.3Z"/>
                </g>
                <path id="XMLID_905_" class="cls-18" d="M459,151.1v2.3l1.6.9V152Z"/>
                <path id="XMLID_904_" class="cls-19" d="M459.4,153.1v-1.8l1.2.7Z"/>
                <path id="XMLID_903_" class="cls-19" d="M460.6,152.3l-1,.9.2.1.8-.7Z"/>
                <path id="XMLID_902_" class="cls-20" d="M459.2,153.2v-2l-.2-.1v2.3l1.6.9v-.2Z"/>
              </g>
            </g>
          </g>
        </g>
        <g id="XMLID_879_">
          <g id="XMLID_889_">
            <g id="XMLID_896_">
              <path id="XMLID_897_" class="cls-9" d="M451.8,147.9l2,1.2v-.4l-1.6-1Z"/>
            </g>
            <g id="XMLID_894_">
              <path id="XMLID_895_" class="cls-11" d="M451.8,145.2v2.7l.4-.2v-2.3Z"/>
            </g>
            <path id="XMLID_893_" class="cls-18" d="M452.2,145.4v2.3l1.6,1v-2.4Z"/>
            <path id="XMLID_892_" class="cls-19" d="M452.6,147.5v-1.9l1.2.7Z"/>
            <path id="XMLID_891_" class="cls-19" d="M453.8,146.6l-1,1,.1.1.9-.8Z"/>
            <path id="XMLID_890_" class="cls-20" d="M452.4,147.6v-2.1l-.2-.1v2.3l1.6,1v-.3Z"/>
          </g>
          <g id="XMLID_880_">
            <g id="XMLID_887_">
              <path id="XMLID_888_" class="cls-9" d="M463,154.4l2,1.2v-.4l-1.6-1Z"/>
            </g>
            <g id="XMLID_885_">
              <path id="XMLID_886_" class="cls-11" d="M463,151.7v2.7l.4-.2v-2.3Z"/>
            </g>
            <path id="XMLID_884_" class="cls-18" d="M463.4,151.9v2.3l1.6,1v-2.3Z"/>
            <path id="XMLID_883_" class="cls-19" d="M463.8,154v-1.8l1.2.7Z"/>
            <path id="XMLID_882_" class="cls-19" d="M465,153.1l-1,1,.2.1.8-.8Z"/>
            <path id="XMLID_881_" class="cls-20" d="M463.6,154.1v-2l-.2-.2v2.3l1.6,1v-.3Z"/>
          </g>
        </g>
        <g id="XMLID_876_">
          <path id="XMLID_878_" class="cls-25" d="M497.6,125.4l-4.5,2.6v34l4.5-2.6Z"/>
          <path id="XMLID_877_" class="cls-9" d="M491.6,128.9v32.2l1.5.9V128Z"/>
        </g>
        <g id="XMLID_872_">
          <path id="XMLID_875_" class="cls-10" d="M446.9,133.1l-2.3-1.3v-1.3l2.3,1.3Z"/>
          <path id="XMLID_874_" class="cls-10" d="M446.9,135.6l-2.3-1.3v-1.2l2.3,1.3Z"/>
          <path id="XMLID_873_" class="cls-11" d="M450.3,136.3,448,135v-1.3l2.3,1.3Z"/>
        </g>
        <g id="XMLID_869_">
          <path id="XMLID_871_" class="cls-9" d="M495.3,132l-2.2,1.3v1.3l2.2-1.3Z"/>
          <path id="XMLID_870_" class="cls-9" d="M495.3,129.4l-2.2,1.3V132l2.2-1.3Z"/>
        </g>
        <path id="XMLID_868_" class="cls-11" d="M497.6,129.4l-1.1.7v1.2l1.1-.6Z"/>
        <g id="XMLID_865_">
          <path id="XMLID_867_" class="cls-9" d="M495.3,139.8l-2.2,1.3v1.3l2.2-1.3Z"/>
          <path id="XMLID_866_" class="cls-9" d="M495.3,137.3l-2.2,1.2v1.3l2.2-1.3Z"/>
        </g>
        <path id="XMLID_864_" class="cls-11" d="M497.6,137.2l-1.1.7v1.3l1.1-.7Z"/>
        <g id="XMLID_861_">
          <path id="XMLID_863_" class="cls-9" d="M495.3,147.6l-2.2,1.3v1.3l2.2-1.3Z"/>
          <path id="XMLID_862_" class="cls-9" d="M495.3,145.1l-2.2,1.3v1.2l2.2-1.3Z"/>
        </g>
        <path id="XMLID_860_" class="cls-11" d="M497.6,145l-1.1.7V147l1.1-.7Z"/>
        <g id="XMLID_857_">
          <path id="XMLID_859_" class="cls-9" d="M495.3,155.4l-2.2,1.3V158l2.2-1.3Z"/>
          <path id="XMLID_858_" class="cls-9" d="M495.3,152.9l-2.2,1.3v1.3l2.2-1.3Z"/>
        </g>
        <path id="XMLID_856_" class="cls-11" d="M497.6,152.9l-1.1.6v1.3l1.1-.7Z"/>
      </g>
      <g id="XMLID_846_">
        <path id="XMLID_853_" class="cls-7" d="M443.7,150.1c-.1.2-.3.2-.5.2v.1c0,.1,0,.2-.1.2h-.2c-.1,0-.2,0-.2-.1h0c.1.1.1.1.1.2,0,.2-.2.1-.4.1-.1,0-.1,0-.1-.1,0,.1.1.3-.1.4-.1.1-.2-.1-.3-.2v-.1a.1.1,0,0,1-.1.1.349.349,0,0,1-.2.1c0,.1-.1.1-.2.1a.349.349,0,0,1-.2-.1l-.1-.1v.1s-.1.1-.1,0c-.1,0-.2-.2-.2-.3v-.1c0,.1,0,.1-.1.1h-.2v-.2h-.1a.1.1,0,0,1-.1.1h-.1a.367.367,0,0,1-.1-.3v-.1c0,.1-.1.1-.2.2h-.1c-.1-.1,0-.2,0-.3-.1,0-.2.1-.3,0-.1,0-.1-.1-.1-.2s.1-.1.1-.2l.1-.1h-.3c-.1,0-.1-.1,0-.1l.2-.2c-.1-.1-.3-.1-.2-.3,0-.1.1-.1.2-.1h.4c0-.1,0-.3.2-.3.1,0,.2,0,.2.1h0a.5.5,0,0,1,.6,0h0a.215.215,0,0,1,.2-.2c.1,0,.3.1.3.2h.1c0-.1.1-.2.2-.3.2,0,.3.1.3.2l.1.1h0v-.1a.2.2,0,0,1,.4,0v.1a.367.367,0,0,1,.3-.1c.1,0,.3.1.3.2v.2a.6.6,0,0,1,.4.1h.2c.1,0,.1.1.1.2s-.1.1-.1.2l-.1.1a.1.1,0,0,1,.1.1v.1C443.7,149.9,443.8,150,443.7,150.1Z"/>
        <g id="XMLID_847_">
          <path id="XMLID_852_" class="cls-26" d="M443.9,148.2c0-.1,0-.1-.1-.2a.1.1,0,0,1-.1-.1h0v-.1c.1-.1.1-.2,0-.4,0-.1-.1-.1-.2-.1a.1.1,0,0,0-.1-.1c0-.1.1-.2,0-.2,0-.1-.2-.2-.3-.2s-.1,0-.1-.1v-.1c0-.1,0-.1-.1-.1h-.4l-.1-.1a.4.4,0,0,0-.2-.4H442a.1.1,0,0,0-.1.1l-.1.1v-.1l-.1-.1h-.2c-.1,0-.1.1-.2.1h-.1l-.1-.1c0-.1-.1-.1-.2-.2-.2-.1-.3,0-.4.2a.1.1,0,0,1-.1.1h0V146c-.1,0-.1-.1-.2,0a.52.52,0,0,0-.2.4h0a.367.367,0,0,0-.3-.1c-.2,0-.2.2-.2.4v.2c0,.1,0,0-.1,0s-.2,0-.2.1a.367.367,0,0,0-.1.3c-.1.1-.1.2-.1.4a.1.1,0,0,0-.1.1h0l-.1.1c-.1.1,0,.3.1.4a.1.1,0,0,1,.1.1c.1.1,0,.1,0,.2s-.1.1-.1.2a.349.349,0,0,0,.1.2.446.446,0,0,0,0,.5c0,.1.1.1.2.1h.2c.1,0,.2,0,.1.1l-.1.1v.1a.215.215,0,0,0,.2.2h.3a.1.1,0,0,0,.1.1h.2c.1,0,.1-.2.2-.1s.1.3.3.3c.1,0,.1-.1.2-.2a.215.215,0,0,0,.2.2h.2c.1,0,.1-.1.2-.1a.349.349,0,0,1,.2.1h.2c.1-.1.1-.1.1-.2h.5c.1,0,.2-.2.2-.3.2,0,.4.1.5-.1v-.3a.367.367,0,0,0,.3-.1l.1-.1v-.2c0-.1.1-.1.1-.2a.349.349,0,0,0,.1-.2.367.367,0,0,0-.1-.3A.215.215,0,0,0,443.9,148.2Z"/>
          <path id="XMLID_851_" class="cls-27" d="M443.4,146.9a.349.349,0,0,0,.1-.2c-.1,0-.1-.1-.2-.1s-.1,0-.1-.1v-.1c0-.1,0-.1-.1-.1h-.4l-.1-.1a.4.4,0,0,0-.2-.4h-.2a.1.1,0,0,0-.1.1l-.1.1v-.1l-.1-.1h-.2c-.1,0-.1.1-.2.1h-.1l-.1-.1c0-.1-.1-.1-.2-.2-.2-.1-.3,0-.4.2a.1.1,0,0,1-.1.1h0v-.1c-.1,0-.1-.1-.2,0a.52.52,0,0,0-.2.4h0a.367.367,0,0,0-.3-.1c-.2,0-.2.2-.2.4v.2c0,.1,0,0-.1,0h-.2c0,.1,0,.3.1.3a.349.349,0,0,0,.2.1h.1v.1a.192.192,0,0,0,.1.3c.1,0,.1.1.2.1h.2c.1.1-.1.3,0,.4,0,.1.2.2.3.2s.1,0,.2.1c.1,0,.1.1.2.1a.265.265,0,0,0,.3-.3v-.2h0a.1.1,0,0,1,.1-.1.1.1,0,0,0,.1.1c0,.1,0,.1.1.2a.367.367,0,0,0,.3.1.1.1,0,0,0,.1-.1v-.2c0-.1.1,0,.1.1v.1a.1.1,0,0,0,.1.1h.3c.1-.1.2-.2.1-.3v-.2h.1c.1,0,.2,0,.2-.1s0-.2-.1-.2a.138.138,0,0,1,0-.2h.2c0,.2.2.3.3.4.1,0,.1.1.2,0,.1,0,.1-.1.1-.2s-.1-.2-.1-.3c.1-.1.1-.1.1-.3,0,0-.1-.1,0-.1C443.3,147,443.3,146.9,443.4,146.9Z"/>
          <path id="XMLID_850_" class="cls-27" d="M442.9,148h0a.31.31,0,0,0-.2-.1s-.1.1,0,.1v.1h0l.1.1h.1l.1-.1C443,148,443,148,442.9,148Z"/>
          <path id="XMLID_849_" class="cls-27" d="M440.7,148.8a.284.284,0,0,0-.5-.2c0,.1,0,.2.1.2l.1.1h.1c.1.1.2,0,.2-.1Z"/>
          <path id="XMLID_848_" class="cls-27" d="M441.3,148.8c0-.1,0-.1-.1-.2h-.1a.1.1,0,0,0-.1.1v.1a.138.138,0,0,0,0,.2c0,.1.1.1.2.1s.1,0,.1-.1Z"/>
        </g>
      </g>
      <g id="XMLID_837_">
        <path id="XMLID_844_" class="cls-7" d="M438.3,153.2c-.1.2-.3.2-.5.2v.1c0,.1,0,.2-.1.2h-.2c-.1,0-.2,0-.2-.1h0c.1.1.1.1.1.2,0,.2-.2.1-.4.1-.1,0-.1,0-.1-.1,0,.1.1.3-.1.4-.1.1-.2-.1-.3-.2v-.1a.1.1,0,0,1-.1.1.349.349,0,0,1-.2.1c0,.1-.1.1-.2.1a.349.349,0,0,1-.2-.1l-.1-.1v.1s-.1.1-.1,0c-.1,0-.2-.2-.2-.3v-.1c0,.1,0,.1-.1.1h-.2v-.2H435a.1.1,0,0,1-.1.1h-.1a.367.367,0,0,1-.1-.3v-.1c0,.1-.1.1-.2.2h-.1c-.1-.1,0-.2,0-.3-.1,0-.2.1-.3,0-.1,0-.1-.1-.1-.2s.1-.1.1-.2l.1-.1h-.3c-.1,0-.1-.1,0-.1l.2-.2c-.1-.1-.3-.1-.2-.3,0-.1.1-.1.2-.1h.4c0-.1,0-.3.2-.3.1,0,.2,0,.2.1h0a.5.5,0,0,1,.6,0h0a.215.215,0,0,1,.2-.2c.1,0,.3.1.3.2h.1c0-.1.1-.2.2-.3.2,0,.3.1.3.2l.1.1h0v-.1a.2.2,0,0,1,.4,0v.1a.367.367,0,0,1,.3-.1c.1,0,.3.1.3.2v.2a.6.6,0,0,1,.4.1h.2c.1,0,.1.1.1.2s-.1.1-.1.2l-.1.1a.1.1,0,0,1,.1.1v.1C438.3,153,438.4,153.1,438.3,153.2Z"/>
        <g id="XMLID_838_">
          <path id="XMLID_843_" class="cls-26" d="M438.5,151.3c0-.1,0-.1-.1-.2a.1.1,0,0,1-.1-.1h0v-.1c.1-.1.1-.2,0-.4,0-.1-.1-.1-.2-.1a.1.1,0,0,0-.1-.1c0-.1.1-.2,0-.2,0-.1-.2-.2-.3-.2s-.1,0-.1-.1v-.1c0-.1,0-.1-.1-.1h-.4l-.1-.1a.4.4,0,0,0-.2-.4h-.2a.1.1,0,0,0-.1.1l-.1.1v-.1l-.1-.1h-.2c-.1,0-.1.1-.2.1h-.1l-.1-.1c0-.1-.1-.1-.2-.2-.2-.1-.3,0-.4.2a.1.1,0,0,1-.1.1h0v-.1c-.1,0-.1-.1-.2,0a.52.52,0,0,0-.2.4h0a.367.367,0,0,0-.3-.1c-.2,0-.2.2-.2.4v.2c0,.1,0,0-.1,0s-.2,0-.2.1a.367.367,0,0,0-.1.3c-.1.1-.1.2-.1.4a.1.1,0,0,0-.1.1h0l-.1.1c-.1.1,0,.3.1.4a.1.1,0,0,1,.1.1c.1.1,0,.1,0,.2s-.1.1-.1.2a.349.349,0,0,0,.1.2.446.446,0,0,0,0,.5c0,.1.1.1.2.1h.2c.1,0,.2,0,.1.1l-.1.1v.1a.215.215,0,0,0,.2.2h.3a.1.1,0,0,0,.1.1h.2c.1,0,.1-.2.2-.1s.1.3.3.3c.1,0,.1-.1.2-.2a.215.215,0,0,0,.2.2h.2c.1,0,.1-.1.2-.1a.349.349,0,0,1,.2.1h.2c.1-.1.1-.1.1-.2h.5c.1,0,.2-.2.2-.3.2,0,.4.1.5-.1v-.3a.367.367,0,0,0,.3-.1l.1-.1v-.2c0-.1.1-.1.1-.2a.349.349,0,0,0,.1-.2.367.367,0,0,0-.1-.3C438.5,151.5,438.5,151.4,438.5,151.3Z"/>
          <path id="XMLID_842_" class="cls-27" d="M438,150.1a.349.349,0,0,0,.1-.2c-.1,0-.1-.1-.2-.1s-.1,0-.1-.1v-.1c0-.1,0-.1-.1-.1h-.4l-.1-.1a.4.4,0,0,0-.2-.4h-.2a.1.1,0,0,0-.1.1l-.1.1v-.1l-.1-.1h-.2c-.1,0-.1.1-.2.1H436l-.1-.1c0-.1-.1-.1-.2-.2-.2-.1-.3,0-.4.2a.1.1,0,0,1-.1.1h0V149c-.1,0-.1-.1-.2,0a.52.52,0,0,0-.2.4h0a.367.367,0,0,0-.3-.1c-.2,0-.2.2-.2.4v.2c0,.1,0,0-.1,0H434c0,.1,0,.3.1.3a.349.349,0,0,0,.2.1h.1v.1a.192.192,0,0,0,.1.3c.1,0,.1.1.2.1h.2c.1.1-.1.3,0,.4,0,.1.2.2.3.2s.1,0,.2.1c.1,0,.1.1.2.1a.265.265,0,0,0,.3-.3v-.2h0a.1.1,0,0,1,.1-.1.1.1,0,0,0,.1.1c0,.1,0,.1.1.2a.367.367,0,0,0,.3.1.1.1,0,0,0,.1-.1v-.2c0-.1.1,0,.1.1v.1a.1.1,0,0,0,.1.1h.3c.1-.1.2-.2.1-.3v-.2h.1c.1,0,.2,0,.2-.1s0-.2-.1-.2a.138.138,0,0,1,0-.2h.2c0,.2.2.3.3.4.1,0,.1.1.2,0,.1,0,.1-.1.1-.2s-.1-.2-.1-.3c.1-.1.1-.1.1-.3,0,0-.1-.1,0-.1C437.9,150.1,437.9,150.1,438,150.1Z"/>
          <path id="XMLID_841_" class="cls-27" d="M437.6,151.1h0a.31.31,0,0,0-.2-.1s-.1.1,0,.1v.1h0l.1.1h.1l.1-.1A.1.1,0,0,1,437.6,151.1Z"/>
          <path id="XMLID_840_" class="cls-27" d="M435.4,152a.284.284,0,0,0-.5-.2c0,.1,0,.2.1.2l.1.1h.1c.1.1.2,0,.2-.1Z"/>
          <path id="XMLID_839_" class="cls-27" d="M435.9,152c0-.1,0-.1-.1-.2h-.1a.1.1,0,0,0-.1.1v.1a.138.138,0,0,0,0,.2c0,.1.1.1.2.1s.1,0,.1-.1Z"/>
        </g>
      </g>
      <g id="XMLID_828_">
        <path id="XMLID_835_" class="cls-7" d="M432.8,156.5c-.1.2-.3.2-.5.2v.1c0,.1,0,.2-.1.2H432c-.1,0-.2,0-.2-.1h0c.1.1.1.1.1.2,0,.2-.2.1-.4.1-.1,0-.1,0-.1-.1,0,.1.1.3-.1.4-.1.1-.2-.1-.3-.2v-.1a.1.1,0,0,1-.1.1.349.349,0,0,1-.2.1c0,.1-.1.1-.2.1a.349.349,0,0,1-.2-.1l-.1-.1v.1s-.1.1-.1,0c-.1,0-.2-.2-.2-.3V157c0,.1,0,.1-.1.1h-.2v-.2h-.1a.1.1,0,0,1-.1.1h-.1a.367.367,0,0,1-.1-.3v-.1c0,.1-.1.1-.2.2h-.1c-.1-.1,0-.2,0-.3-.1,0-.2.1-.3,0-.1,0-.1-.1-.1-.2s.1-.1.1-.2l.1-.1h-.3c-.1,0-.1-.1,0-.1l.2-.2c-.1-.1-.3-.1-.2-.3,0-.1.1-.1.2-.1h.4c0-.1,0-.3.2-.3.1,0,.2,0,.2.1h0a.5.5,0,0,1,.6,0h0a.215.215,0,0,1,.2-.2c.1,0,.3.1.3.2h.1c0-.1.1-.2.2-.3.2,0,.3.1.3.2l.1.1h0V155a.2.2,0,0,1,.4,0v.1a.367.367,0,0,1,.3-.1c.1,0,.3.1.3.2v.2a.6.6,0,0,1,.4.1h.2c.1,0,.1.1.1.2s-.1.1-.1.2l-.1.1a.1.1,0,0,1,.1.1v.1S432.9,156.3,432.8,156.5Z"/>
        <g id="XMLID_829_">
          <path id="XMLID_834_" class="cls-26" d="M433,154.5c0-.1,0-.1-.1-.2a.1.1,0,0,1-.1-.1h0v-.1c.1-.1.1-.2,0-.4,0-.1-.1-.1-.2-.1a.1.1,0,0,0-.1-.1c0-.1.1-.2,0-.2,0-.1-.2-.2-.3-.2s-.1,0-.1-.1v-.1c0-.1,0-.1-.1-.1h-.4l-.1-.1a.4.4,0,0,0-.2-.4h-.2a.1.1,0,0,0-.1.1l-.1.1v-.1l-.1-.1h-.2c-.1,0-.1.1-.2.1h-.1l-.1-.1c0-.1-.1-.1-.2-.2-.2-.1-.3,0-.4.2a.1.1,0,0,1-.1.1h0v-.1c-.1,0-.1-.1-.2,0a.52.52,0,0,0-.2.4h0a.367.367,0,0,0-.3-.1c-.2,0-.2.2-.2.4v.2c0,.1,0,0-.1,0s-.2,0-.2.1a.367.367,0,0,0-.1.3c-.1.1-.1.2-.1.4a.1.1,0,0,0-.1.1h0l-.1.1c-.1.1,0,.3.1.4a.1.1,0,0,1,.1.1c.1.1,0,.1,0,.2s-.1.1-.1.2a.349.349,0,0,0,.1.2.446.446,0,0,0,0,.5c0,.1.1.1.2.1h.2c.1,0,.2,0,.1.1l-.1.1v.1a.215.215,0,0,0,.2.2h.3a.1.1,0,0,0,.1.1h.2c.1,0,.1-.2.2-.1s.1.3.3.3c.1,0,.1-.1.2-.2a.215.215,0,0,0,.2.2h.2c.1,0,.1-.1.2-.1a.349.349,0,0,1,.2.1h.2c.1-.1.1-.1.1-.2h.5c.1,0,.2-.2.2-.3.2,0,.4.1.5-.1v-.3a.367.367,0,0,0,.3-.1l.1-.1v-.2c0-.1.1-.1.1-.2a.349.349,0,0,0,.1-.2.367.367,0,0,0-.1-.3C433,154.7,433,154.6,433,154.5Z"/>
          <path id="XMLID_833_" class="cls-27" d="M432.5,153.3a.349.349,0,0,0,.1-.2c-.1,0-.1-.1-.2-.1s-.1,0-.1-.1v-.1c0-.1,0-.1-.1-.1h-.4l-.1-.1a.4.4,0,0,0-.2-.4h-.2a.1.1,0,0,0-.1.1l-.1.1v-.1l-.1-.1h-.2c-.1,0-.1.1-.2.1h-.1l-.1-.1c0-.1-.1-.1-.2-.2-.2-.1-.3,0-.4.2a.1.1,0,0,1-.1.1h0v-.1c-.1,0-.1-.1-.2,0a.52.52,0,0,0-.2.4h0a.367.367,0,0,0-.3-.1c-.2,0-.2.2-.2.4v.2c0,.1,0,0-.1,0h-.2c0,.1,0,.3.1.3a.349.349,0,0,0,.2.1h.1v.1a.192.192,0,0,0,.1.3c.1,0,.1.1.2.1h.2c.1.1-.1.3,0,.4,0,.1.2.2.3.2s.1,0,.2.1c.1,0,.1.1.2.1a.265.265,0,0,0,.3-.3v-.2h0a.1.1,0,0,1,.1-.1.1.1,0,0,0,.1.1c0,.1,0,.1.1.2a.367.367,0,0,0,.3.1.1.1,0,0,0,.1-.1v-.2c0-.1.1,0,.1.1v.1a.1.1,0,0,0,.1.1h.3c.1-.1.2-.2.1-.3v-.2h.1c.1,0,.2,0,.2-.1s0-.2-.1-.2a.138.138,0,0,1,0-.2h.2c0,.2.2.3.3.4.1,0,.1.1.2,0,.1,0,.1-.1.1-.2s-.1-.2-.1-.3c.1-.1.1-.1.1-.3,0,0-.1-.1,0-.1C432.4,153.3,432.4,153.3,432.5,153.3Z"/>
          <path id="XMLID_832_" class="cls-27" d="M432.1,154.3h0a.31.31,0,0,0-.2-.1s-.1.1,0,.1v.1h0l.1.1h.1l.1-.1A.1.1,0,0,1,432.1,154.3Z"/>
          <path id="XMLID_831_" class="cls-27" d="M429.9,155.2a.284.284,0,0,0-.5-.2c0,.1,0,.2.1.2l.1.1h.1c.1.1.2,0,.2-.1Z"/>
          <path id="XMLID_830_" class="cls-27" d="M430.4,155.2c0-.1,0-.1-.1-.2h-.1a.1.1,0,0,0-.1.1v.1a.138.138,0,0,0,0,.2c0,.1.1.1.2.1s.1,0,.1-.1Z"/>
        </g>
      </g>
      <g id="XMLID_819_">
        <path id="XMLID_826_" class="cls-7" d="M477.4,170c-.1.2-.3.2-.5.2v.1c0,.1,0,.2-.1.2h-.2c-.1,0-.2,0-.2-.1h0c.1.1.1.1.1.2,0,.2-.2.1-.4.1-.1,0-.1,0-.1-.1,0,.1.1.3-.1.4-.1.1-.2-.1-.3-.2v-.1a.1.1,0,0,1-.1.1.349.349,0,0,1-.2.1c0,.1-.1.1-.2.1a.349.349,0,0,1-.2-.1l-.1-.1v.1s-.1.1-.1,0c-.1,0-.2-.2-.2-.3v-.1c0,.1,0,.1-.1.1h-.2v-.2h-.1a.1.1,0,0,1-.1.1h-.1a.367.367,0,0,1-.1-.3v-.1c0,.1-.1.1-.2.2h-.1c-.1-.1,0-.2,0-.3-.1,0-.2.1-.3,0-.1,0-.1-.1-.1-.2s.1-.1.1-.2l.1-.1H473c-.1,0-.1-.1,0-.1l.2-.2c-.1-.1-.3-.1-.2-.3,0-.1.1-.1.2-.1h.4c0-.1,0-.3.2-.3.1,0,.2,0,.2.1h0a.5.5,0,0,1,.6,0h0a.215.215,0,0,1,.2-.2c.1,0,.3.1.3.2h.1c0-.1.1-.2.2-.3.2,0,.3.1.3.2l.1.1h0v-.1a.2.2,0,0,1,.4,0v.1a.367.367,0,0,1,.3-.1c.1,0,.3.1.3.2v.2a.6.6,0,0,1,.4.1h.2c.1,0,.1.1.1.2s-.1.1-.1.2l-.1.1a.1.1,0,0,1,.1.1v.1S477.5,169.9,477.4,170Z"/>
        <g id="XMLID_820_">
          <path id="XMLID_825_" class="cls-26" d="M477.6,168c0-.1,0-.1-.1-.2a.1.1,0,0,1-.1-.1h0v-.1c.1-.1.1-.2,0-.4,0-.1-.1-.1-.2-.1a.1.1,0,0,0-.1-.1c0-.1.1-.2,0-.2,0-.1-.2-.2-.3-.2s-.1,0-.1-.1v-.1c0-.1,0-.1-.1-.1h-.4l-.1-.1a.4.4,0,0,0-.2-.4h-.2a.1.1,0,0,0-.1.1l-.1.1v-.1l-.1-.1h-.2c-.1,0-.1.1-.2.1h-.1l-.1-.1c0-.1-.1-.1-.2-.2-.2-.1-.3,0-.4.2a.1.1,0,0,1-.1.1h0v-.1c-.1,0-.1-.1-.2,0a.52.52,0,0,0-.2.4h0a.367.367,0,0,0-.3-.1c-.2,0-.2.2-.2.4v.2c0,.1,0,0-.1,0s-.2,0-.2.1a.367.367,0,0,0-.1.3c-.1.1-.1.2-.1.4a.1.1,0,0,0-.1.1h0l-.1.1c-.1.1,0,.3.1.4a.1.1,0,0,1,.1.1c.1.1,0,.1,0,.2s-.1.1-.1.2a.349.349,0,0,0,.1.2.446.446,0,0,0,0,.5c0,.1.1.1.2.1h.2c.1,0,.2,0,.1.1l-.1.1v.1a.215.215,0,0,0,.2.2h.3a.1.1,0,0,0,.1.1h.2c.1,0,.1-.2.2-.1s.1.3.3.3c.1,0,.1-.1.2-.2a.215.215,0,0,0,.2.2h.2c.1,0,.1-.1.2-.1a.349.349,0,0,1,.2.1h.2c.1-.1.1-.1.1-.2h.5c.1,0,.2-.2.2-.3.2,0,.4.1.5-.1v-.3a.367.367,0,0,0,.3-.1l.1-.1v-.2c0-.1.1-.1.1-.2a.349.349,0,0,0,.1-.2.367.367,0,0,0-.1-.3C477.6,168.3,477.6,168.2,477.6,168Z"/>
          <path id="XMLID_824_" class="cls-27" d="M477.1,166.8a.349.349,0,0,0,.1-.2c-.1,0-.1-.1-.2-.1s-.1,0-.1-.1v-.1c0-.1,0-.1-.1-.1h-.4l-.1-.1a.4.4,0,0,0-.2-.4h-.2a.1.1,0,0,0-.1.1l-.1.1v-.1l-.1-.1h-.2c-.1,0-.1.1-.2.1h-.1l-.1-.1c0-.1-.1-.1-.2-.2-.2-.1-.3,0-.4.2a.1.1,0,0,1-.1.1h0v-.1c-.1,0-.1-.1-.2,0a.52.52,0,0,0-.2.4h0a.367.367,0,0,0-.3-.1c-.2,0-.2.2-.2.4v.2c0,.1,0,0-.1,0h-.2c0,.1,0,.3.1.3a.349.349,0,0,0,.2.1h.1v.1a.192.192,0,0,0,.1.3c.1,0,.1.1.2.1h.2c.1.1-.1.3,0,.4,0,.1.2.2.3.2s.1,0,.2.1c.1,0,.1.1.2.1a.265.265,0,0,0,.3-.3v-.2h0a.1.1,0,0,1,.1-.1.1.1,0,0,0,.1.1c0,.1,0,.1.1.2a.367.367,0,0,0,.3.1.1.1,0,0,0,.1-.1v-.2c0-.1.1,0,.1.1v.1a.1.1,0,0,0,.1.1h.3c.1-.1.2-.2.1-.3v-.2h.1c.1,0,.2,0,.2-.1s0-.2-.1-.2a.138.138,0,0,1,0-.2h.2c0,.2.2.3.3.4.1,0,.1.1.2,0,.1,0,.1-.1.1-.2s-.1-.2-.1-.3c.1-.1.1-.1.1-.3,0,0-.1-.1,0-.1C477,166.8,477,166.8,477.1,166.8Z"/>
          <path id="XMLID_823_" class="cls-27" d="M476.6,167.8h0a.31.31,0,0,0-.2-.1s-.1.1,0,.1v.1h0l.1.1h.1l.1-.1Z"/>
          <path id="XMLID_822_" class="cls-27" d="M474.4,168.7a.284.284,0,0,0-.5-.2c0,.1,0,.2.1.2l.1.1h.1c.1.1.2,0,.2-.1C474.5,168.8,474.5,168.7,474.4,168.7Z"/>
          <path id="XMLID_821_" class="cls-27" d="M475,168.7c0-.1,0-.1-.1-.2h-.1a.1.1,0,0,0-.1.1v.1a.138.138,0,0,0,0,.2c0,.1.1.1.2.1s.1,0,.1-.1Z"/>
        </g>
      </g>
      <g id="XMLID_810_">
        <path id="XMLID_817_" class="cls-7" d="M472,173.1c-.1.2-.3.2-.5.2v.1c0,.1,0,.2-.1.2h-.2c-.1,0-.2,0-.2-.1h0c.1.1.1.1.1.2,0,.2-.2.1-.4.1-.1,0-.1,0-.1-.1,0,.1.1.3-.1.4-.1.1-.2-.1-.3-.2v-.1a.1.1,0,0,1-.1.1.349.349,0,0,1-.2.1c0,.1-.1.1-.2.1a.349.349,0,0,1-.2-.1l-.1-.1v.1s-.1.1-.1,0c-.1,0-.2-.2-.2-.3v-.1c0,.1,0,.1-.1.1h-.2v-.2h-.1a.1.1,0,0,1-.1.1h-.1a.367.367,0,0,1-.1-.3v-.1c0,.1-.1.1-.2.2h-.1c-.1-.1,0-.2,0-.3-.1,0-.2.1-.3,0-.1,0-.1-.1-.1-.2s.1-.1.1-.2l.1-.1h-.3c-.1,0-.1-.1,0-.1l.2-.2c-.1-.1-.3-.1-.2-.3,0-.1.1-.1.2-.1h.4c0-.1,0-.3.2-.3.1,0,.2,0,.2.1h0a.5.5,0,0,1,.6,0h0a.215.215,0,0,1,.2-.2c.1,0,.3.1.3.2h.1c0-.1.1-.2.2-.3.2,0,.3.1.3.2l.1.1h0v-.1a.2.2,0,0,1,.4,0v.1a.367.367,0,0,1,.3-.1c.1,0,.3.1.3.2v.2a.6.6,0,0,1,.4.1h.2c.1,0,.1.1.1.2s-.1.1-.1.2l-.1.1a.1.1,0,0,1,.1.1v.1C472,172.9,472.1,173,472,173.1Z"/>
        <g id="XMLID_811_">
          <path id="XMLID_816_" class="cls-26" d="M472.2,171.2c0-.1,0-.1-.1-.2a.1.1,0,0,1-.1-.1h0v-.1c.1-.1.1-.2,0-.4,0-.1-.1-.1-.2-.1a.1.1,0,0,0-.1-.1c0-.1.1-.2,0-.2,0-.1-.2-.2-.3-.2s-.1,0-.1-.1v-.1c0-.1,0-.1-.1-.1h-.4l-.1-.1a.4.4,0,0,0-.2-.4h-.2a.1.1,0,0,0-.1.1l-.1.1v-.1l-.1-.1h-.2c-.1,0-.1.1-.2.1h-.1l-.1-.1c0-.1-.1-.1-.2-.2-.2-.1-.3,0-.4.2a.1.1,0,0,1-.1.1h0V169c-.1,0-.1-.1-.2,0a.52.52,0,0,0-.2.4h0a.367.367,0,0,0-.3-.1c-.2,0-.2.2-.2.4v.2c0,.1,0,0-.1,0s-.2,0-.2.1a.367.367,0,0,0-.1.3c-.1.1-.1.2-.1.4a.1.1,0,0,0-.1.1h0l-.1.1c-.1.1,0,.3.1.4a.1.1,0,0,1,.1.1c.1.1,0,.1,0,.2s-.1.1-.1.2a.349.349,0,0,0,.1.2.446.446,0,0,0,0,.5c0,.1.1.1.2.1h.2c.1,0,.2,0,.1.1l-.1.1v.1a.215.215,0,0,0,.2.2h.3a.1.1,0,0,0,.1.1h.2c.1,0,.1-.2.2-.1s.1.3.3.3c.1,0,.1-.1.2-.2a.215.215,0,0,0,.2.2h.2c.1,0,.1-.1.2-.1a.349.349,0,0,1,.2.1h.2c.1-.1.1-.1.1-.2h.5c.1,0,.2-.2.2-.3.2,0,.4.1.5-.1v-.3a.367.367,0,0,0,.3-.1l.1-.1v-.2c0-.1.1-.1.1-.2a.349.349,0,0,0,.1-.2.367.367,0,0,0-.1-.3C472.2,171.4,472.2,171.3,472.2,171.2Z"/>
          <path id="XMLID_815_" class="cls-27" d="M471.7,169.9a.349.349,0,0,0,.1-.2c-.1,0-.1-.1-.2-.1s-.1,0-.1-.1v-.1c0-.1,0-.1-.1-.1H471l-.1-.1a.4.4,0,0,0-.2-.4h-.2a.1.1,0,0,0-.1.1l-.1.1v-.1l-.1-.1H470c-.1,0-.1.1-.2.1h-.1l-.1-.1c0-.1-.1-.1-.2-.2-.2-.1-.3,0-.4.2a.1.1,0,0,1-.1.1h0v-.1c-.1,0-.1-.1-.2,0a.52.52,0,0,0-.2.4h0a.367.367,0,0,0-.3-.1c-.2,0-.2.2-.2.4v.2c0,.1,0,0-.1,0h-.2c0,.1,0,.3.1.3a.349.349,0,0,0,.2.1h.1v.1a.192.192,0,0,0,.1.3c.1,0,.1.1.2.1h.2c.1.1-.1.3,0,.4,0,.1.2.2.3.2s.1,0,.2.1c.1,0,.1.1.2.1a.265.265,0,0,0,.3-.3v-.2h0a.1.1,0,0,1,.1-.1.1.1,0,0,0,.1.1c0,.1,0,.1.1.2a.367.367,0,0,0,.3.1.1.1,0,0,0,.1-.1v-.2c0-.1.1,0,.1.1v.1a.1.1,0,0,0,.1.1h.3c.1-.1.2-.2.1-.3v-.2h.1c.1,0,.2,0,.2-.1s0-.2-.1-.2a.138.138,0,0,1,0-.2h.2c0,.2.2.3.3.4.1,0,.1.1.2,0,.1,0,.1-.1.1-.2s-.1-.2-.1-.3c.1-.1.1-.1.1-.3,0,0-.1-.1,0-.1Z"/>
          <path id="XMLID_814_" class="cls-27" d="M471.3,171h0c-.1,0-.1-.1,0,0h0a.31.31,0,0,0-.2-.1s-.1.1,0,.1v.1h0l.1.1h.1l.1-.1Z"/>
          <path id="XMLID_813_" class="cls-27" d="M469.1,171.8a.284.284,0,0,0-.5-.2c0,.1,0,.2.1.2l.1.1h.1c.1.1.2,0,.2-.1Z"/>
          <path id="XMLID_812_" class="cls-27" d="M469.6,171.8c0-.1,0-.1-.1-.2h-.1a.1.1,0,0,0-.1.1v.1a.138.138,0,0,0,0,.2c0,.1.1.1.2.1s.1,0,.1-.1Z"/>
        </g>
      </g>
      <g id="XMLID_801_">
        <path id="XMLID_808_" class="cls-7" d="M466.5,176.3c-.1.2-.3.2-.5.2v.1c0,.1,0,.2-.1.2h-.2c-.1,0-.2,0-.2-.1h0c.1.1.1.1.1.2,0,.2-.2.1-.4.1-.1,0-.1,0-.1-.1,0,.1.1.3-.1.4-.1.1-.2-.1-.3-.2V177a.1.1,0,0,1-.1.1.349.349,0,0,1-.2.1c0,.1-.1.1-.2.1a.349.349,0,0,1-.2-.1l-.1-.1v.1s-.1.1-.1,0c-.1,0-.2-.2-.2-.3v-.1c0,.1,0,.1-.1.1h-.2v-.2h-.1a.1.1,0,0,1-.1.1H463a.367.367,0,0,1-.1-.3v-.1c0,.1-.1.1-.2.2h-.1c-.1-.1,0-.2,0-.3-.1,0-.2.1-.3,0-.1,0-.1-.1-.1-.2s.1-.1.1-.2l.1-.1h-.3c-.1,0-.1-.1,0-.1l.2-.2c-.1-.1-.3-.1-.2-.3,0-.1.1-.1.2-.1h.4c0-.1,0-.3.2-.3.1,0,.2,0,.2.1h0a.5.5,0,0,1,.6,0h0a.215.215,0,0,1,.2-.2c.1,0,.3.1.3.2h.1c0-.1.1-.2.2-.3.2,0,.3.1.3.2l.1.1h0v-.1a.2.2,0,0,1,.4,0v.1a.367.367,0,0,1,.3-.1c.1,0,.3.1.3.2v.2a.6.6,0,0,1,.4.1h.2c.1,0,.1.1.1.2s-.1.1-.1.2l-.1.1a.1.1,0,0,1,.1.1v.1A.187.187,0,0,1,466.5,176.3Z"/>
        <g id="XMLID_802_">
          <path id="XMLID_807_" class="cls-26" d="M466.7,174.4c0-.1,0-.1-.1-.2a.1.1,0,0,1-.1-.1h0V174c.1-.1.1-.2,0-.4,0-.1-.1-.1-.2-.1a.1.1,0,0,0-.1-.1c0-.1.1-.2,0-.2,0-.1-.2-.2-.3-.2s-.1,0-.1-.1v-.1c0-.1,0-.1-.1-.1h-.4l-.1-.1a.4.4,0,0,0-.2-.4h-.2a.1.1,0,0,0-.1.1l-.1.1v-.1l-.1-.1h-.2c-.1,0-.1.1-.2.1H464l-.1-.1c0-.1-.1-.1-.2-.2-.2-.1-.3,0-.4.2a.1.1,0,0,1-.1.1h0v-.1c-.1,0-.1-.1-.2,0a.52.52,0,0,0-.2.4h0a.367.367,0,0,0-.3-.1c-.2,0-.2.2-.2.4v.2c0,.1,0,0-.1,0s-.2,0-.2.1a.367.367,0,0,0-.1.3c-.1.1-.1.2-.1.4a.1.1,0,0,0-.1.1h0l-.1.1c-.1.1,0,.3.1.4a.1.1,0,0,1,.1.1c.1.1,0,.1,0,.2s-.1.1-.1.2a.349.349,0,0,0,.1.2.446.446,0,0,0,0,.5c0,.1.1.1.2.1h.2c.1,0,.2,0,.1.1l-.1.1v.1a.215.215,0,0,0,.2.2h.3a.1.1,0,0,0,.1.1h.2c.1,0,.1-.2.2-.1s.1.3.3.3c.1,0,.1-.1.2-.2a.215.215,0,0,0,.2.2h.2c.1,0,.1-.1.2-.1a.349.349,0,0,1,.2.1h.2c.1-.1.1-.1.1-.2h.5c.1,0,.2-.2.2-.3.2,0,.4.1.5-.1v-.3a.367.367,0,0,0,.3-.1l.1-.1v-.2c0-.1.1-.1.1-.2a.349.349,0,0,0,.1-.2.367.367,0,0,0-.1-.3C466.7,174.6,466.7,174.5,466.7,174.4Z"/>
          <path id="XMLID_806_" class="cls-27" d="M466.2,173.1a.349.349,0,0,0,.1-.2c-.1,0-.1-.1-.2-.1s-.1,0-.1-.1v-.1c0-.1,0-.1-.1-.1h-.4l-.1-.1a.4.4,0,0,0-.2-.4H465a.1.1,0,0,0-.1.1l-.1.1v-.1l-.1-.1h-.2c-.1,0-.1.1-.2.1h-.1l-.1-.1c0-.1-.1-.1-.2-.2-.2-.1-.3,0-.4.2a.1.1,0,0,1-.1.1h0V172c-.1,0-.1-.1-.2,0a.52.52,0,0,0-.2.4h0a.367.367,0,0,0-.3-.1c-.2,0-.2.2-.2.4v.2c0,.1,0,0-.1,0h-.2c0,.1,0,.3.1.3a.349.349,0,0,0,.2.1h.1v.1a.192.192,0,0,0,.1.3c.1,0,.1.1.2.1h.2c.1.1-.1.3,0,.4,0,.1.2.2.3.2s.1,0,.2.1c.1,0,.1.1.2.1a.265.265,0,0,0,.3-.3v-.2h0a.1.1,0,0,1,.1-.1.1.1,0,0,0,.1.1c0,.1,0,.1.1.2a.367.367,0,0,0,.3.1.1.1,0,0,0,.1-.1v-.2c0-.1.1,0,.1.1v.1a.1.1,0,0,0,.1.1h.3c.1-.1.2-.2.1-.3v-.2h.1c.1,0,.2,0,.2-.1s0-.2-.1-.2a.138.138,0,0,1,0-.2h.2c0,.2.2.3.3.4.1,0,.1.1.2,0,.1,0,.1-.1.1-.2s-.1-.2-.1-.3c.1-.1.1-.1.1-.3,0,0-.1-.1,0-.1C466.1,173.2,466.2,173.2,466.2,173.1Z"/>
          <path id="XMLID_805_" class="cls-27" d="M465.8,174.2h0c-.1,0-.1-.1,0,0h0a.31.31,0,0,0-.2-.1s-.1.1,0,.1v.1h0l.1.1h.1l.1-.1A.1.1,0,0,1,465.8,174.2Z"/>
          <path id="XMLID_804_" class="cls-27" d="M463.6,175a.284.284,0,0,0-.5-.2c0,.1,0,.2.1.2l.1.1h.1c.1.1.2,0,.2-.1Z"/>
          <path id="XMLID_803_" class="cls-27" d="M464.1,175c0-.1,0-.1-.1-.2h-.1a.1.1,0,0,0-.1.1v.1a.138.138,0,0,0,0,.2c0,.1.1.1.2.1s.1,0,.1-.1A.139.139,0,0,0,464.1,175Z"/>
        </g>
      </g>
    </g>
  </g>
</svg>
