<svg xmlns="http://www.w3.org/2000/svg" viewBox="0 0 216.79 88.493">
  <defs>
    <style>
      .cls-1 {
        fill: #232c3b;
      }

      .cls-1, .cls-2 {
        fill-rule: evenodd;
      }

      .cls-2 {
        fill: #4351a3;
      }
    </style>
  </defs>
  <g id="DCH_AI_4_" data-name="DCH AI (4)" transform="translate(-25.224 -100.171)">
    <g id="Dch_Advisory_1_">
      <g id="Dch_Advisory">
        <g id="Group_22" data-name="Group 22">
          <path id="Path_31" data-name="Path 31" class="cls-1" d="M164.4,132.629a16.143,16.143,0,0,0-6.016-3.291,26.5,26.5,0,0,0-7.821-1.083q-1.656,0-3.422.056t-3.478.146c-1.14.061-2.24.133-3.293.22s-1.987.178-2.8.276V166q2.43.258,5.668.442t6.513.185a22.7,22.7,0,0,0,8.65-1.527,17.215,17.215,0,0,0,6.217-4.243,17.637,17.637,0,0,0,3.754-6.526,26.486,26.486,0,0,0,1.253-8.323,20.641,20.641,0,0,0-1.364-7.829A14.554,14.554,0,0,0,164.4,132.629Zm-.534,20.027a23.121,23.121,0,0,1-1.086,4.3,10.539,10.539,0,0,1-1.525,2.85,8.816,8.816,0,0,1-1.748,1.707,12.37,12.37,0,0,1-4.639,1.893,29.511,29.511,0,0,1-6.4.57q-1.8,0-3.22-.129c-.944-.086-1.8-.188-2.558-.313V131.378c.468-.049.891-.1,1.271-.147s.791-.093,1.233-.13.95-.066,1.527-.092,1.294-.035,2.151-.035a21.16,21.16,0,0,1,5.777.789,12.82,12.82,0,0,1,4.932,2.629A13.04,13.04,0,0,1,163,139.224a18.642,18.642,0,0,1,1.289,7.37A37.224,37.224,0,0,1,163.869,152.656Zm34.41,10.808q-1.567.219-3.147.33t-3.055.107a8.111,8.111,0,0,1-7.636-4.205q-2.373-4.209-2.374-12.331a49.873,49.873,0,0,1,.663-8.9q.661-3.562,2.318-4.851a7.272,7.272,0,0,1,2.943-1.415,17.808,17.808,0,0,1,3.791-.35,22.925,22.925,0,0,1,2.467.166q1.469.163,3,.4t2.852.532c.884.2,1.567.368,2.062.516l1.359-4.484c-.441-.1-1.049-.189-1.82-.276s-1.6-.164-2.484-.238-1.791-.134-2.723-.183-1.78-.074-2.54-.074a20.448,20.448,0,0,0-6.183.975,14.8,14.8,0,0,0-5.573,3.233,16.57,16.57,0,0,0-4.031,5.919,23.2,23.2,0,0,0-1.547,9.021,36.284,36.284,0,0,0,.812,7.994,16.91,16.91,0,0,0,2.6,6.117,12.041,12.041,0,0,0,4.616,3.936,15.542,15.542,0,0,0,6.919,1.4,29.386,29.386,0,0,0,3.2-.185c1.1-.124,2.2-.3,3.3-.532s2.157-.515,3.2-.85a20.974,20.974,0,0,0,2.926-1.158v-1.948a26.912,26.912,0,0,1-2.833.772Q199.842,163.245,198.279,163.464ZM236.9,128.658V146.04H216.181V128.658h-5.115V166.3h5.115V148.8H236.9v17.5h5.114V128.658H236.9Z"/>
        </g>
      </g>
    </g>
    <g id="Ellipse_1_copy_3_1_">
      <g id="Ellipse_1_copy_3_2_">
        <g id="Group_23" data-name="Group 23">
          <path id="Path_32" data-name="Path 32" class="cls-2" d="M66.494,175.512a37.258,37.258,0,1,1,10.922-72.881,38.7,38.7,0,1,0,14.366,62.934A37.021,37.021,0,0,1,66.494,175.512Z"/>
        </g>
      </g>
    </g>
    <g id="Ellipse_1_copy_4_1_">
      <g id="Ellipse_1_copy_4">
        <path id="Path_33" data-name="Path 33" class="cls-2" d="M114.814,132.3a38.493,38.493,0,0,0-62.6-8.657,37.242,37.242,0,1,1,15.5,62.822,38.62,38.62,0,0,0,47.1-54.165Z"/>
      </g>
    </g>
  </g>
</svg>
